<svg xmlns="http://www.w3.org/2000/svg" version="1.1" viewBox="-5.0 -10.0 110.0 135.0">
    <path
        d="m13.859 47.434c-1.0898 1.3867-1.7422 3.1406-1.7422 5.0391 0 2.7148 1.3281 5.1172 3.3672 6.6055-2.0391 1.4844-3.3672 3.8906-3.3672 6.6016 0 2.7109 1.3281 5.1172 3.3672 6.6016-2.0391 1.4844-3.3672 3.8906-3.3672 6.6016 0 1.9023 0.65234 3.6523 1.7422 5.0391h-1.7891c-0.86328 0-1.6914 0.34375-2.3008 0.95703-0.61328 0.60938-0.95312 1.4375-0.95312 2.3008v4.8711c0 0.86328 0.33984 1.6914 0.95312 2.3008 0.60938 0.60938 1.4375 0.95313 2.3008 0.95313h75.863c0.86328 0 1.6914-0.34375 2.3008-0.95313 0.61328-0.60937 0.95312-1.4375 0.95312-2.3008v-4.8711c0-0.86328-0.33984-1.6914-0.95312-2.3008-0.60938-0.61328-1.4375-0.95703-2.3008-0.95703h-1.7891c1.0898-1.3867 1.7422-3.1367 1.7422-5.0391 0-2.7109-1.3281-5.1172-3.3672-6.6016 2.0391-1.4844 3.3672-3.8906 3.3672-6.6016 0-2.7109-1.3281-5.1172-3.3672-6.6016 2.0391-1.4883 3.3672-3.8906 3.3672-6.6055 0-1.8984-0.65234-3.6523-1.7422-5.0391h6.7852c0.64453 0 1.2227-0.39453 1.457-0.99219 0.23047-0.59766 0.074219-1.2812-0.39844-1.7148l-13.117-12.109v-16.547h0.98047c0.86328 0 1.5625-0.69922 1.5625-1.5625v-8.2578c0-0.86328-0.69922-1.5625-1.5625-1.5625h-17.469c-0.86328 0-1.5625 0.69922-1.5625 1.5625v8.2578c0 0.86328 0.69922 1.5625 1.5625 1.5625h0.98047v2.2344l-14.301-13.199c-0.59766-0.55469-1.5234-0.55469-2.1172 0l-42.926 39.621c-0.47266 0.43359-0.62891 1.1172-0.39844 1.7148 0.23438 0.60156 0.8125 0.99219 1.457 0.99219h6.7852zm-1.7891 39.621h75.863c0.035156 0 0.066406 0.015624 0.089844 0.039062 0.023437 0.023438 0.039062 0.054688 0.039062 0.089844v4.8711c0 0.035156-0.011719 0.066406-0.039062 0.089843-0.023438 0.023438-0.054688 0.039063-0.089844 0.039063h-75.863c-0.035156 0-0.066406-0.011719-0.089843-0.039063-0.023438-0.023437-0.039063-0.054687-0.039063-0.089843v-4.8711c0-0.035156 0.011719-0.070313 0.039063-0.089844 0.023437-0.023438 0.054687-0.039062 0.089843-0.039062zm8.2148-13.207c1.8047 0 3.3867 0.94922 4.2773 2.375 0.027344 0.046875 0.054688 0.097656 0.085938 0.14453 0.007812 0.015624 0.019531 0.03125 0.027343 0.046874 0.050781 0.085938 0.09375 0.17578 0.13672 0.26172 0.011719 0.023438 0.023438 0.050781 0.039062 0.074219l0.046876 0.10547c0.14844 0.33594 0.25781 0.6875 0.33203 1.0547l0.027343 0.14844 0.007813 0.0625c0.039063 0.24219 0.054687 0.49219 0.058594 0.75v0.015625c0 0.26172-0.023438 0.52344-0.058594 0.77344l-0.019531 0.10547-0.019532 0.11328c-0.007812 0.019532-0.007812 0.039063-0.011718 0.058594-0.007813 0.023438-0.011719 0.054688-0.019532 0.082031-0.003906 0.015625-0.007812 0.035157-0.011718 0.050781-0.011719 0.058594-0.027344 0.11719-0.042969 0.17188l-0.019531 0.070312c-0.050782 0.16406-0.10547 0.32422-0.17188 0.48438l-0.011719 0.035156-0.046875 0.10547c-0.046875 0.10547-0.097656 0.21094-0.14844 0.30859l-0.015626 0.027344c-0.23828 0.44531-0.53906 0.84766-0.89844 1.1992-0.09375 0.09375-0.19141 0.17969-0.29297 0.26562-0.023437 0.023438-0.054687 0.046875-0.078125 0.070313-0.375 0.30469-0.79688 0.55469-1.25 0.74219l-0.046875 0.019531c-0.58203 0.23047-1.2109 0.35938-1.875 0.35938-2.7852 0-5.043-2.2578-5.043-5.0391s2.2578-5.0391 5.043-5.0391zm59.43 0c2.7852 0 5.043 2.2578 5.043 5.0391 0 2.7852-2.2578 5.0391-5.043 5.0391-2.5469 0-4.6562-1.8945-4.9922-4.3516l-0.007812-0.0625-0.007813-0.074219c-0.023437-0.17969-0.03125-0.36719-0.03125-0.55469v-0.015624c0-0.17969 0.011719-0.35938 0.03125-0.53516l0.003907-0.039062 0.015624-0.11328c0.007813-0.058594 0.015626-0.11719 0.027344-0.17578 0-0.007812 0.003906-0.023437 0.003906-0.03125 0.007813-0.046875 0.019532-0.09375 0.027344-0.13672l0.019532-0.082032c0.47266-2.0703 2.2266-3.6641 4.3828-3.8867 0.007812 0 0.019531-0.003907 0.03125-0.003907 0.039062-0.003906 0.085938-0.007812 0.12891-0.011719l0.050782-0.003906c0.054687-0.003906 0.11328-0.007812 0.16797-0.007812h0.019532c0.042968-0.003906 0.085937-0.003906 0.13281-0.003906zm-42.215 0h-10.793l0.10547 0.13672 0.10156 0.13672 0.085938 0.12109 0.085938 0.11719 0.078124 0.125 0.082032 0.125 0.074218 0.125 0.074219 0.12891 0.070313 0.13281 0.058594 0.10938 0.13281 0.26562 0.0625 0.13281 0.0625 0.13672 0.054688 0.13281 0.054687 0.13672 0.054687 0.14062 0.050782 0.14062 0.039062 0.12109 0.046875 0.14453 0.042969 0.14453 0.039062 0.14453 0.078126 0.29688 0.0625 0.29688 0.027343 0.14844 0.023438 0.15234 0.019531 0.12891 0.019531 0.15234 0.015625 0.15234 0.015625 0.15625 0.015625 0.3125 0.003906 0.15625 0.003907 0.16016v0.13672l-0.007813 0.15234-0.003906 0.13281-0.007812 0.15234-0.007813 0.13281-0.015625 0.15234-0.011719 0.12891-0.023437 0.16016-0.019532 0.125-0.019531 0.12891-0.023437 0.14453-0.023438 0.10547-0.027344 0.125c-0.26562 1.2227-0.80469 2.3398-1.5547 3.2891h46.586l-0.074218-0.097656-0.14844-0.20312-0.082031-0.11719-0.070313-0.10156-0.082031-0.12109-0.066406-0.10156-0.066406-0.10938-0.074219-0.125-0.058594-0.10547-0.070312-0.13281-0.054688-0.10938-0.054687-0.11328-0.0625-0.13281-0.054688-0.11328-0.058593-0.13672-0.050782-0.11328-0.10156-0.25391-0.039063-0.11719-0.050781-0.14062-0.039062-0.11719-0.039063-0.12109-0.039063-0.14453-0.035156-0.12109-0.035156-0.14844-0.03125-0.12109-0.027344-0.12891-0.027344-0.14844-0.023437-0.125-0.023437-0.14844-0.019532-0.12891-0.019531-0.13281-0.015625-0.14844-0.011719-0.12891-0.011719-0.13281-0.007812-0.14844-0.007812-0.13281-0.003907-0.15234-0.003906-0.13281 0.003906-0.15234 0.003907-0.13281 0.015624-0.3125 0.011719-0.15625 0.011719-0.15234 0.019531-0.15234 0.046875-0.30469 0.023438-0.14844 0.027344-0.14844 0.070312-0.29687 0.039062-0.14844 0.039063-0.14453 0.042969-0.14844 0.042968-0.14062 0.042969-0.13281 0.10156-0.27344 0.10156-0.25391 0.050782-0.11328c0.27344-0.62891 0.63281-1.2148 1.0508-1.75h-10.793v4.2734c0 0.86328-0.69922 1.5625-1.5625 1.5625h-21.875c-0.86328 0-1.5625-0.69922-1.5625-1.5625zm21.875-5.1016h-7.8125v7.8125h7.8125zm-10.938 7.8125v-7.8125h-7.8125v7.8125zm31.277-15.918c2.7852 0 5.043 2.2578 5.043 5.0391s-2.2578 5.0391-5.043 5.0391c-2.5469 0-4.6562-1.8945-4.9922-4.3516l-0.007812-0.054688c-0.003906-0.027344-0.007813-0.058594-0.007813-0.085938-0.023437-0.17969-0.03125-0.36719-0.03125-0.55078v-0.003906c0-0.1875 0.011719-0.375 0.03125-0.55859l0.015625-0.13281c0.007813-0.054688 0.019532-0.11328 0.027344-0.16797l0.007812-0.058594c0.007813-0.039062 0.015626-0.074218 0.023438-0.11328 0.007812-0.042969 0.019531-0.089844 0.03125-0.13281 0.097656-0.41406 0.24609-0.80859 0.44531-1.1797 0.019532-0.039063 0.039063-0.078125 0.0625-0.11719 0.11328-0.20313 0.24219-0.39844 0.38281-0.58594 0.085937-0.10938 0.17188-0.21484 0.26172-0.31641l0.007812-0.007813c0.56641-0.625 1.2852-1.1094 2.1016-1.3906 0.51562-0.17969 1.0703-0.27344 1.6445-0.27344zm-59.43 0c1.8086 0 3.3984 0.95703 4.2891 2.3867l0.019531 0.035156c0.039062 0.0625 0.070312 0.12109 0.10938 0.18359l0.042969 0.085937 0.03125 0.054688 0.039062 0.085937 0.03125 0.0625c0.17188 0.36719 0.30469 0.75781 0.38281 1.1641l0.023437 0.13281 0.011719 0.074219c0.039063 0.25 0.058594 0.50781 0.058594 0.76953v0.003907c0 0.25781-0.023438 0.51562-0.058594 0.76562l-0.011719 0.082032c-0.003906 0.011718-0.003906 0.023437-0.007812 0.03125l-0.019532 0.10938c-0.003906 0.019531-0.007812 0.035156-0.011718 0.050781-0.007813 0.039062-0.015625 0.082031-0.023438 0.12109l-0.003906 0.007812c-0.015625 0.066406-0.03125 0.13281-0.050781 0.19531v0.003906c-0.078125 0.27344-0.17969 0.53906-0.29688 0.78906-0.023438 0.042968-0.042969 0.089843-0.066406 0.13281-0.058594 0.11328-0.12109 0.22656-0.1875 0.33594-0.007813 0.015624-0.019532 0.03125-0.03125 0.046874-0.015626 0.023438-0.03125 0.050782-0.046876 0.074219l-0.03125 0.046875c-0.027343 0.042969-0.058593 0.089844-0.089843 0.13281l-0.015625 0.019531c-0.023438 0.03125-0.046875 0.0625-0.070313 0.09375-0.023437 0.035156-0.050781 0.066406-0.078125 0.10156l-0.035156 0.039063c-0.035156 0.042969-0.070312 0.089844-0.10938 0.13281-0.13281 0.14844-0.27344 0.29297-0.41797 0.42578-0.023437 0.023437-0.054687 0.050781-0.082031 0.070312-0.046875 0.042969-0.097656 0.085938-0.14844 0.125l-0.085938 0.070313-0.011719 0.007812c-0.46094 0.35156-0.98438 0.62891-1.5547 0.80469l-0.074219 0.023437c-0.085937 0.023438-0.17969 0.050781-0.26953 0.070313l-0.078125 0.019531-0.10156 0.023437c-0.31641 0.0625-0.64062 0.09375-0.97266 0.09375-2.7852 0-5.043-2.2578-5.043-5.0391s2.2578-5.0391 5.043-5.0391zm53.008 0h-11.273c0.31641 1.1016 0.47656 2.2539 0.47656 3.418v6.6641h10.793l-0.10547-0.13672-0.10156-0.13672-0.085937-0.12109-0.085938-0.11719-0.078125-0.12109-0.082031-0.12891-0.074219-0.125-0.074219-0.12891-0.070312-0.13281-0.058594-0.10938-0.13281-0.26562-0.125-0.26562-0.10938-0.27344-0.054688-0.14062-0.050781-0.14062-0.039062-0.12109-0.046876-0.14062-0.042968-0.14844-0.039063-0.14453-0.078125-0.29688-0.0625-0.29688-0.027344-0.14844-0.023437-0.15234-0.019531-0.12891-0.019532-0.15234-0.015624-0.15234-0.015626-0.15625-0.015624-0.3125-0.007813-0.3125 0.003906-0.15625 0.003907-0.13281 0.007812-0.16016 0.007812-0.15234 0.023438-0.3125 0.019531-0.15234 0.023438-0.15234 0.023437-0.14844 0.023438-0.15234 0.027344-0.14844 0.070312-0.29688 0.078125-0.29688 0.085937-0.28906 0.042969-0.12891 0.050781-0.14062 0.050782-0.13281 0.046875-0.11719 0.054687-0.13281 0.050782-0.11719c0.27344-0.62891 0.63281-1.2148 1.0508-1.7461zm-35.316 0h-11.273l0.10547 0.13281 0.10156 0.14062 0.085938 0.11719 0.085937 0.12109 0.078125 0.12109 0.082032 0.125 0.14844 0.25781 0.070313 0.12891 0.058593 0.11328 0.13281 0.26562 0.125 0.26563 0.054687 0.13281 0.10938 0.28125 0.050782 0.14062 0.039062 0.11719 0.046875 0.14453 0.042969 0.14453 0.11719 0.44531 0.0625 0.29687 0.027344 0.14844 0.023437 0.14844 0.019532 0.13281 0.019531 0.15234 0.015625 0.15234 0.015625 0.15625 0.007813 0.15234 0.007812 0.16016 0.003906 0.15625 0.003906 0.15234-0.003906 0.16016-0.003906 0.13281-0.015625 0.3125-0.011719 0.15625-0.011718 0.15234-0.019532 0.15625-0.023437 0.14844-0.023438 0.15234-0.023437 0.14844-0.027344 0.14844-0.070312 0.29688-0.078126 0.29688-0.042968 0.14453-0.042969 0.14062-0.042969 0.13281-0.10156 0.27344-0.046875 0.11719-0.054688 0.13281-0.050781 0.11328c-0.27344 0.62891-0.63281 1.2148-1.0508 1.75h10.793v-6.6641c0-1.1641 0.16406-2.3164 0.47656-3.418zm10.461-5.8242v10.805h-7.8125v-1.5625c0-2.4883 0.98828-4.8711 2.7461-6.6289 1.3828-1.3867 3.1602-2.293 5.0664-2.6172zm3.125 0v10.805h7.8125v-1.5625c0-0.70312-0.078125-1.4023-0.23438-2.0898-0.17188-0.74219-0.43359-1.4648-0.77734-2.1484l-0.023437-0.050781c-0.44141-0.85547-1.0156-1.6484-1.7109-2.3398-1.3828-1.3867-3.1602-2.293-5.0664-2.6172zm28.152-7.3828c2.7852 0 5.043 2.2578 5.043 5.0391 0 2.7852-2.2578 5.043-5.043 5.043-2.3789 0-4.3789-1.6562-4.9023-3.875l-0.011719-0.050781c-0.015625-0.074219-0.03125-0.14844-0.046875-0.22656 0-0.007812 0-0.015625-0.003906-0.023437-0.007812-0.058594-0.019531-0.11719-0.027344-0.17969l-0.007812-0.058594c-0.003906-0.03125-0.007813-0.066406-0.011719-0.097656-0.019531-0.17578-0.027344-0.35547-0.027344-0.53906s0.007813-0.36719 0.03125-0.55078l0.015625-0.13672 0.003906-0.011719c0.007813-0.054687 0.015626-0.11328 0.023438-0.16797 0.003906-0.011718 0.007812-0.027344 0.007812-0.042968 0.007813-0.039063 0.011719-0.078126 0.023438-0.11719 0.007812-0.050781 0.023438-0.10156 0.035156-0.14844 0.16406-0.69531 0.47656-1.3359 0.89844-1.8828l0.03125-0.042969c0.023437-0.023437 0.039062-0.050781 0.0625-0.074219 0.007812-0.011718 0.023437-0.023437 0.03125-0.039062 0.039062-0.042969 0.078125-0.089844 0.11719-0.13281l0.023438-0.027344c0.0625-0.066406 0.125-0.13281 0.19141-0.19531 0.011719-0.011719 0.023437-0.023437 0.039063-0.039062 0.015624-0.019531 0.03125-0.035157 0.050781-0.050781l0.042969-0.039063c0.058593-0.054687 0.11719-0.10547 0.17969-0.16016l0.003906-0.003907c0.16406-0.13672 0.33984-0.26562 0.52344-0.38281l0.011719-0.007812c0.12891-0.082032 0.25781-0.15625 0.39453-0.22656l0.070312-0.035156c0.085938-0.042969 0.17969-0.085938 0.26562-0.12109l0.023438-0.007813c0.042968-0.019531 0.085937-0.039062 0.13281-0.054687 0.015625-0.007813 0.03125-0.011719 0.046875-0.019531 0.015625-0.007813 0.03125-0.011719 0.046875-0.015625 0.027344-0.011719 0.054688-0.023438 0.085938-0.03125l0.070312-0.023438c0.070313-0.023437 0.14062-0.042969 0.21094-0.066406 0.054687-0.011719 0.10547-0.027344 0.16406-0.039063l0.074219-0.019531c0.011719 0 0.023437-0.003906 0.035156-0.007812 0.027344-0.007813 0.058594-0.011719 0.089844-0.019531 0.039063-0.007813 0.082031-0.015626 0.12109-0.023438l0.046875-0.007812c0.058594-0.007813 0.11719-0.019532 0.17578-0.023438l0.042969-0.007812c0.046875-0.003907 0.097656-0.007813 0.14453-0.011719l0.082031-0.007813 0.10547-0.007812 0.10938-0.003906c0.042969 0 0.085938-0.003907 0.13281-0.003907h0.023438zm-6.4219 0h-46.586l0.125 0.16406 0.007813 0.011719c0.70312 0.94531 1.207 2.0469 1.4453 3.2422l0.007813 0.050782 0.023437 0.125 0.023438 0.15234 0.023437 0.13281 0.019531 0.14844 0.015626 0.13281 0.011718 0.14844 0.011719 0.13281 0.007813 0.14844 0.007812 0.13281 0.003906 0.15234 0.003906 0.13281-0.003906 0.15234-0.003906 0.13281-0.015625 0.3125-0.011719 0.15234-0.011718 0.15625-0.019532 0.15234-0.046875 0.30469-0.023437 0.14844-0.027344 0.14844-0.070312 0.29688-0.078126 0.29687-0.042968 0.14844-0.042969 0.14062-0.042969 0.12891-0.050781 0.14062-0.050781 0.13672-0.10156 0.25391-0.050781 0.11328c-0.27344 0.62891-0.63281 1.2148-1.0508 1.75h12.645c0.50781-0.82812 1.1172-1.5977 1.8125-2.293 2.3438-2.3477 5.5234-3.6641 8.8359-3.6641-0.86328 0-1.5625 0.69922-1.5625 1.5625 0-0.86328 0.69922-1.5625 1.5625-1.5625 3.3164 0 6.4922 1.3164 8.8359 3.6641 0.69531 0.69531 1.3047 1.4648 1.8125 2.293h12.645l-0.10547-0.13672-0.10156-0.13672-0.085937-0.12109-0.085938-0.11719-0.078125-0.125-0.082031-0.125-0.074219-0.125-0.074219-0.13281-0.070312-0.12891-0.058594-0.10938-0.13281-0.26562-0.0625-0.13281-0.0625-0.13672-0.054688-0.13281-0.054688-0.13672-0.054687-0.14062-0.050781-0.14453-0.039063-0.11719-0.046875-0.14453-0.042968-0.14453-0.039063-0.14844-0.039063-0.14453-0.039062-0.14844-0.0625-0.29688-0.027344-0.15234-0.023437-0.14844-0.019531-0.12891-0.019532-0.15234-0.015625-0.15625-0.015625-0.15234-0.015625-0.3125-0.003906-0.16016-0.003906-0.15234v-0.14062l0.007812-0.15234 0.003907-0.13281 0.007812-0.15234 0.007812-0.13281 0.011719-0.13281 0.015625-0.14844 0.015625-0.12891 0.019531-0.13281 0.023438-0.14844 0.046875-0.25c0.24219-1.1953 0.74219-2.3008 1.4453-3.2422l0.097656-0.12891c0.011718-0.015624 0.023437-0.035156 0.039062-0.050781zm-53.008 0c2.7812 0 5.0391 2.2578 5.0391 5.0391 0 0.26172-0.023438 0.51953-0.058594 0.76953l-0.015625 0.089843c0 0.007813 0 0.011719-0.003906 0.019531l-0.019532 0.11328c-0.003906 0.015625-0.007812 0.035156-0.011718 0.050781-0.078125 0.38281-0.20312 0.75391-0.36719 1.0977-0.027344 0.058594-0.054687 0.11719-0.085937 0.17188l-0.050781 0.097656c-0.027344 0.054688-0.058594 0.10156-0.089844 0.15625l-0.03125 0.054688-0.046875 0.074219-0.019531 0.027343c-0.042969 0.070313-0.085938 0.13281-0.13281 0.19922l-0.023437 0.027344c-0.03125 0.046875-0.070313 0.09375-0.10156 0.14062-0.011719 0.015625-0.023437 0.03125-0.039063 0.046875-0.054687 0.066406-0.10937 0.13281-0.16406 0.19922-0.023438 0.023437-0.039062 0.042968-0.0625 0.070312-0.39844 0.42969-0.86719 0.79297-1.3906 1.0703l-0.023437 0.011719c-0.03125 0.015624-0.058594 0.03125-0.089844 0.042968l-0.058594 0.03125-0.054688 0.023438-0.070312 0.03125c-0.082031 0.035156-0.16016 0.070312-0.24219 0.10156-0.019531 0.007813-0.039062 0.011719-0.054687 0.023438l-0.10156 0.035156-0.070312 0.023438c-0.070312 0.023437-0.14062 0.042968-0.21094 0.0625-0.007812 0.003906-0.011718 0.003906-0.019531 0.007812-0.074219 0.019531-0.14844 0.039062-0.22266 0.054688l-0.13281 0.023437c-0.042968 0.007813-0.089843 0.019531-0.13672 0.023437l-0.023438 0.007813c-0.26562 0.039063-0.53906 0.066406-0.8125 0.066406-2.7852 0-5.043-2.2578-5.043-5.043 0-2.7812 2.2578-5.0391 5.043-5.0391zm45.574-24.418-15.859-14.641-38.93 35.934h5.5508l32.32-29.832c0.59766-0.55469 1.5234-0.55469 2.1172 0l32.32 29.832h5.5508l-16.555-15.281-6.5078-6.0078-0.003907-0.003906zm-44.633 21.293h10.023v-9.25zm13.148-12.133v12.133h7.8125v-19.348l-7.8125 7.2109zm10.938-10.098v22.23h9.375v-22.23l-4.6875-4.3281zm12.5 22.23h7.8125v-12.133l-7.8125-7.2109v19.348zm10.938 0h10.023l-10.023-9.25zm8.9922-28.242h-9.2578v5.1172l9.2578 8.543v-13.664zm2.543-8.2578v5.1289c0 0.003906-14.344 0.003906-14.344 0.003906v-5.1328z"
        fill-rule="evenodd" />
</svg>