<svg xmlns="http://www.w3.org/2000/svg" version="1.1" viewBox="-5.0 -10.0 110.0 120.0">
    <path
        d="m14.059 15.625c-4.3008 0-7.8086 3.5078-7.8086 7.8086v40.625c0 4.3008 3.5078 7.8086 7.8086 7.8086h29.582c-0.44531 3.1602-2.2656 6.4219-5.6836 9.8398v0.003907c-0.44531 0.44922-0.57422 1.1172-0.33203 1.7031 0.24219 0.58203 0.80859 0.96094 1.4414 0.96094h21.867c0.63281 0 1.1992-0.37891 1.4414-0.96094 0.24219-0.58594 0.11328-1.2539-0.33203-1.7031-3.418-3.418-5.2344-6.6797-5.6797-9.8398h29.578c4.3008 0 7.8086-3.5078 7.8086-7.8086v-40.629c0-4.3008-3.5078-7.8086-7.8086-7.8086zm0 3.1133h71.883c2.625 0 4.6836 2.0742 4.6836 4.6953v39.07h-81.246v-39.07c0-2.625 2.0586-4.6953 4.6797-4.6953zm17.105 9.3867c-0.34375 0.019531-0.67187 0.14844-0.93359 0.375l-10.934 9.375c-0.31641 0.26953-0.51172 0.65234-0.54297 1.0664-0.035156 0.41016 0.097656 0.82031 0.36719 1.1367 0.56641 0.65234 1.5508 0.72656 2.2031 0.16016l10.949-9.3672c0.65234-0.5625 0.72266-1.5469 0.16016-2.2031-0.31641-0.36719-0.78516-0.56641-1.2695-0.54297zm10.945 0c-0.34375 0.019531-0.67188 0.14844-0.93359 0.375l-21.879 18.742c-0.31641 0.26953-0.51172 0.65234-0.54297 1.0664-0.035156 0.41016 0.097656 0.82031 0.36719 1.1367 0.26953 0.31641 0.65234 0.51172 1.0664 0.54297s0.82422-0.10156 1.1367-0.37109l21.883-18.746c0.31641-0.26562 0.51172-0.65234 0.54297-1.0625 0.03125-0.41406-0.10156-0.82422-0.37109-1.1406-0.3125-0.36719-0.78125-0.56641-1.2695-0.54297zm-32.477 37.492h80.734c-0.62891 1.8359-2.3516 3.125-4.4258 3.125h-71.883c-2.0742 0-3.7969-1.2891-4.4258-3.125zm37.133 6.2539h6.4648c0.43359 3.2031 2.1719 6.3203 4.6094 9.375h-15.672c2.4375-3.0547 4.168-6.1719 4.6016-9.375z" />
</svg>