<svg xmlns="http://www.w3.org/2000/svg" version="1.1" viewBox="-5.0 -10.0 110.0 135.0">
    <path
        d="m73.559 59.27h-15.559c-0.82812 0-1.5 0.67188-1.5 1.5v13.41c0 0.82812 0.67188 1.5 1.5 1.5h15.559c0.82812 0 1.5-0.67188 1.5-1.5v-13.41c0-0.82812-0.67188-1.5-1.5-1.5zm-1.5 13.41h-12.59v-10.41h12.59zm16.219-15h0.003906c0.28125 0.23047 0.63672 0.35156 1 0.33984h0.14062c0.39062-0.042969 0.74609-0.23828 1-0.53906l6.7617-8.2188h-0.003906c0.26953-0.30859 0.40234-0.71094 0.36719-1.1133-0.035156-0.40625-0.23047-0.78125-0.54688-1.0391l-14.461-11.859v-19.609c0-0.82812-0.67187-1.5-1.5-1.5h-13.48c-0.82812 0-1.5 0.67188-1.5 1.5v6.0508l-15.059-12.441c-0.55469-0.44922-1.3477-0.44922-1.8984 0l-46 37.859c-0.64062 0.52734-0.73437 1.4688-0.21094 2.1094l6.7109 8.2227c0.53125 0.63672 1.4727 0.72656 2.1172 0.20703l2.1484-1.7812 0.003906 32.223h-3.0625c-0.82812 0-1.5 0.67188-1.5 1.5s0.67188 1.5 1.5 1.5h78.383c0.82812 0 1.5-0.67188 1.5-1.5s-0.67188-1.5-1.5-1.5h-3.0625v-32.219zm-19.219-33.52v-7h10.48v15.621l-1.7188-1.4219zm-58.059 30.219-4.8594-5.8984 43.859-36.129 43.891 36.129-4.8906 5.8984-3.4492-2.8516-8.4492-7-26.102-21.527c-0.55469-0.44922-1.3477-0.44922-1.8984 0l-26.23 21.578-8.4492 7zm21.852 33.621v-25.73h12.59v25.73zm50.281 0h-34.691v-27.23c0-0.82812-0.67188-1.5-1.5-1.5h-15.59c-0.82812 0-1.5 0.67188-1.5 1.5v27.32h-13v-34.691l33.148-27.258 25.219 20.758 1.2383 1 6.6719 5.4805z" />
</svg>