<svg xmlns:x="http://ns.adobe.com/Extensibility/1.0/"
    xmlns:i="http://ns.adobe.com/AdobeIllustrator/10.0/"
    xmlns:graph="http://ns.adobe.com/Graphs/1.0/" xmlns="http://www.w3.org/2000/svg"
    xmlns:xlink="http://www.w3.org/1999/xlink" version="1.1" x="0px" y="0px" viewBox="0 0 100 110"
    style="enable-background:new 0 0 100 100;" xml:space="preserve"><switch><foreignObject requiredExtensions="http://ns.adobe.com/AdobeIllustrator/10.0/" x="0" y="0" width="1" height="1"/><g i:extraneous="self"><g><path d="M87,76.5c-5.8,0-10.5,4.7-10.5,10.5c0,5.8,4.7,10.5,10.5,10.5c5.8,0,10.5-4.7,10.5-10.5C97.5,81.2,92.8,76.5,87,76.5z      M87,92.5c-3,0-5.5-2.5-5.5-5.5c0-3,2.5-5.5,5.5-5.5s5.5,2.5,5.5,5.5C92.5,90,90,92.5,87,92.5z"/><path d="M62.3,76.5c-5.8,0-10.5,4.7-10.5,10.5c0,5.8,4.7,10.5,10.5,10.5c5.8,0,10.5-4.7,10.5-10.5C72.8,81.2,68.1,76.5,62.3,76.5     z M62.3,92.5c-3,0-5.5-2.5-5.5-5.5c0-3,2.5-5.5,5.5-5.5c3,0,5.5,2.5,5.5,5.5C67.8,90,65.4,92.5,62.3,92.5z"/><path d="M37.7,76.5c-5.8,0-10.5,4.7-10.5,10.5c0,5.8,4.7,10.5,10.5,10.5c5.8,0,10.5-4.7,10.5-10.5C48.1,81.2,43.5,76.5,37.7,76.5     z M37.7,92.5c-3,0-5.5-2.5-5.5-5.5c0-3,2.5-5.5,5.5-5.5s5.5,2.5,5.5,5.5C43.1,90,40.7,92.5,37.7,92.5z"/><path d="M13,76.5C7.2,76.5,2.5,81.2,2.5,87c0,5.8,4.7,10.5,10.5,10.5c5.8,0,10.5-4.7,10.5-10.5C23.5,81.2,18.8,76.5,13,76.5z      M13,92.5c-3,0-5.5-2.5-5.5-5.5c0-3,2.5-5.5,5.5-5.5c3,0,5.5,2.5,5.5,5.5C18.5,90,16,92.5,13,92.5z"/><path d="M87,51.8c-5.8,0-10.5,4.7-10.5,10.5S81.2,72.8,87,72.8c5.8,0,10.5-4.7,10.5-10.5S92.8,51.8,87,51.8z M87,67.8     c-3,0-5.5-2.5-5.5-5.5c0-3,2.5-5.5,5.5-5.5s5.5,2.5,5.5,5.5C92.5,65.4,90,67.8,87,67.8z"/><path d="M62.3,51.8c-5.8,0-10.5,4.7-10.5,10.5s4.7,10.5,10.5,10.5c5.8,0,10.5-4.7,10.5-10.5S68.1,51.8,62.3,51.8z M62.3,67.8     c-3,0-5.5-2.5-5.5-5.5c0-3,2.5-5.5,5.5-5.5c3,0,5.5,2.5,5.5,5.5C67.8,65.4,65.4,67.8,62.3,67.8z"/><path d="M37.7,51.8c-5.8,0-10.5,4.7-10.5,10.5s4.7,10.5,10.5,10.5c5.8,0,10.5-4.7,10.5-10.5S43.5,51.8,37.7,51.8z M37.7,67.8     c-3,0-5.5-2.5-5.5-5.5c0-3,2.5-5.5,5.5-5.5s5.5,2.5,5.5,5.5C43.1,65.4,40.7,67.8,37.7,67.8z"/><path d="M13,51.8c-5.8,0-10.5,4.7-10.5,10.5S7.2,72.8,13,72.8c5.8,0,10.5-4.7,10.5-10.5S18.8,51.8,13,51.8z M13,67.8     c-3,0-5.5-2.5-5.5-5.5c0-3,2.5-5.5,5.5-5.5c3,0,5.5,2.5,5.5,5.5C18.5,65.4,16,67.8,13,67.8z"/><path d="M87,27.2c-5.8,0-10.5,4.7-10.5,10.5S81.2,48.1,87,48.1c5.8,0,10.5-4.7,10.5-10.5S92.8,27.2,87,27.2z M87,43.1     c-3,0-5.5-2.5-5.5-5.5s2.5-5.5,5.5-5.5s5.5,2.5,5.5,5.5S90,43.1,87,43.1z"/><path d="M62.3,27.2c-5.8,0-10.5,4.7-10.5,10.5s4.7,10.5,10.5,10.5c5.8,0,10.5-4.7,10.5-10.5S68.1,27.2,62.3,27.2z M62.3,43.1     c-3,0-5.5-2.5-5.5-5.5s2.5-5.5,5.5-5.5c3,0,5.5,2.5,5.5,5.5S65.4,43.1,62.3,43.1z"/><path d="M37.7,27.2c-5.8,0-10.5,4.7-10.5,10.5s4.7,10.5,10.5,10.5c5.8,0,10.5-4.7,10.5-10.5S43.5,27.2,37.7,27.2z M37.7,43.1     c-3,0-5.5-2.5-5.5-5.5s2.5-5.5,5.5-5.5s5.5,2.5,5.5,5.5S40.7,43.1,37.7,43.1z"/><path d="M13,27.2c-5.8,0-10.5,4.7-10.5,10.5S7.2,48.1,13,48.1c5.8,0,10.5-4.7,10.5-10.5S18.8,27.2,13,27.2z M13,43.1     c-3,0-5.5-2.5-5.5-5.5s2.5-5.5,5.5-5.5c3,0,5.5,2.5,5.5,5.5S16,43.1,13,43.1z"/><path d="M87,23.5c5.8,0,10.5-4.7,10.5-10.5c0-5.8-4.7-10.5-10.5-10.5c-5.8,0-10.5,4.7-10.5,10.5C76.5,18.8,81.2,23.5,87,23.5z      M87,7.5c3,0,5.5,2.5,5.5,5.5c0,3-2.5,5.5-5.5,5.5S81.5,16,81.5,13C81.5,10,84,7.5,87,7.5z"/><path d="M62.3,2.5c-5.8,0-10.5,4.7-10.5,10.5c0,5.8,4.7,10.5,10.5,10.5c5.8,0,10.5-4.7,10.5-10.5C72.8,7.2,68.1,2.5,62.3,2.5z      M62.3,18.5c-3,0-5.5-2.5-5.5-5.5c0-3,2.5-5.5,5.5-5.5c3,0,5.5,2.5,5.5,5.5C67.8,16,65.4,18.5,62.3,18.5z"/><path d="M37.7,2.5c-5.8,0-10.5,4.7-10.5,10.5c0,5.8,4.7,10.5,10.5,10.5c5.8,0,10.5-4.7,10.5-10.5C48.1,7.2,43.5,2.5,37.7,2.5z      M37.7,18.5c-3,0-5.5-2.5-5.5-5.5c0-3,2.5-5.5,5.5-5.5s5.5,2.5,5.5,5.5C43.1,16,40.7,18.5,37.7,18.5z"/><path d="M13,2.5C7.2,2.5,2.5,7.2,2.5,13c0,5.8,4.7,10.5,10.5,10.5c5.8,0,10.5-4.7,10.5-10.5C23.5,7.2,18.8,2.5,13,2.5z M13,18.5     c-3,0-5.5-2.5-5.5-5.5c0-3,2.5-5.5,5.5-5.5c3,0,5.5,2.5,5.5,5.5C18.5,16,16,18.5,13,18.5z"/></g></g></switch></svg>