<svg xmlns="http://www.w3.org/2000/svg" version="1.1" viewBox="-5.0 -10.0 90.0 120.0">
 <path d="m40.828 84.453c-10.707 0-20.402-4.3398-27.418-11.359-7.0156-7.0156-11.359-16.711-11.359-27.418s4.3398-20.402 11.359-27.418c7.0156-7.0156 16.711-11.359 27.418-11.359s20.402 4.3398 27.418 11.359c7.0156 7.0156 11.359 16.715 11.359 27.418 0 1.7617-0.125 3.5273-0.36328 5.2773-0.17578 1.2969-0.41797 2.5781-0.72266 3.832l18.621 13.859c0.88281 0.65625 1.0703 1.9062 0.41406 2.7891-0.28516 0.38672-0.68359 0.63672-1.1172 0.74609l-12.504 3.168 5.0938 8.8203c0.55078 0.95312 0.22656 2.1758-0.72656 2.7266l-10.238 5.9062c-0.95312 0.54688-2.1719 0.21875-2.7188-0.73438l-5.0938-8.8203-9 9.2539c-0.76953 0.78906-2.0312 0.80859-2.8203 0.039062-0.34375-0.33594-0.53906-0.76172-0.58984-1.2031l-1.1953-10.25c-2.0195 0.90234-4.1289 1.6406-6.3125 2.1914-2.9883 0.75391-6.1133 1.1602-9.3203 1.1758h-0.1875zm2-73.246v17.031c3.9219-0.089843 7.668-0.44141 11.141-1.0156-0.84375-2.918-1.8789-5.5508-3.0703-7.8242-2.2734-4.332-5.0664-7.2773-8.0664-8.1953zm0 21.035v11.434h9.4492l-0.53906-4.6328c-0.125-1.0938 0.66406-2.0859 1.7578-2.2109 0.55859-0.0625 1.0898 0.10938 1.4961 0.44141l1.0352 0.76953c-0.25-2.4141-0.61719-4.7344-1.0859-6.9336-3.7812 0.64062-7.8555 1.0352-12.109 1.1289zm0 15.438v11.434c2.0898 0.046875 4.1641 0.17188 6.2109 0.36328 1.7812 0.16797 3.5039 0.38281 5.1562 0.64453l-1.4531-12.441zm0 15.434v17.031c1.9766-0.60938 3.8711-2.1055 5.582-4.293 2.2578-2.8867 4.168-6.9141 5.5547-11.727-1.7188-0.28516-3.4883-0.51562-5.2852-0.68359-1.8633-0.17188-3.8203-0.28516-5.8555-0.33203zm-4 17.035v-17.035c-3.9219 0.089844-7.668 0.44141-11.141 1.0117 0.70703 2.4453 1.5508 4.6914 2.5078 6.6953 2.3672 4.9492 5.375 8.3281 8.6328 9.3242zm0-21.035v-11.434h-13.555c0.11719 4.4648 0.62109 8.6992 1.4414 12.562 3.7812-0.64063 7.8555-1.0352 12.109-1.125zm0-15.438v-11.434c-4.2539-0.09375-8.332-0.48828-12.109-1.125-0.82031 3.8594-1.3281 8.0977-1.4414 12.562h13.555zm0-15.438v-17.035c-3.2578 0.99609-6.2656 4.375-8.6328 9.3242-0.95703 2.0039-1.8008 4.25-2.5078 6.6953 3.4727 0.57031 7.2188 0.92188 11.141 1.0117zm36.723 19.438h-6.5859l6.0391 4.4961c0.10938-0.57812 0.20312-1.1602 0.28516-1.75 0.12109-0.89453 0.21094-1.8125 0.26172-2.7461zm-19.309-4.5c1.6914 14.512 3.3867 29.02 5.0781 43.531l7.9102-8.1328c0.12891-0.12891 0.27344-0.24219 0.4375-0.33594 0.95312-0.54688 2.1719-0.21875 2.7188 0.73438l5.4141 9.3828 6.7734-3.9141-5.3672-9.293c-0.11719-0.17969-0.20703-0.38281-0.26172-0.60156-0.26562-1.0703 0.38281-2.1562 1.4531-2.4219l10.992-2.7812c-11.719-8.7227-23.438-17.441-35.156-26.164zm7.3477 0.49609h11.957c-0.35938-6.3047-2.3945-12.16-5.668-17.125-3.0859 1.5391-6.8281 2.8281-11.027 3.7852 0.72266 3.3984 1.2148 7.0508 1.4297 10.875l3.3125 2.4648zm-8.0625 27.84c-1.1641 2.6133-2.5 4.9023-3.9727 6.7891-0.16797 0.21094-0.33594 0.42188-0.50391 0.625 1.7695-0.54297 3.4766-1.2227 5.1094-2.0234l-0.62891-5.3906zm-4.4805-59.09c1.2266 1.4609 2.3594 3.1836 3.3789 5.1289 1.3555 2.5859 2.5273 5.5898 3.4648 8.9023 3.625-0.82422 6.8555-1.9023 9.5508-3.1719-0.64062-0.76562-1.3164-1.5-2.0234-2.207-3.9609-3.9609-8.875-6.9727-14.371-8.6562zm-44.941 31.25h15.164c0.12109-4.7188 0.65625-9.2148 1.5312-13.34-4.2031-0.96094-7.9414-2.25-11.027-3.7852-3.2734 4.9648-5.3125 10.82-5.668 17.125zm15.164 4h-15.164c0.35938 6.3047 2.3945 12.16 5.668 17.125 3.0859-1.5391 6.8242-2.8281 11.027-3.7852-0.87891-4.125-1.4141-8.6211-1.5312-13.336zm9.3359-35.25c-5.4961 1.6875-10.41 4.6953-14.371 8.6602-0.70703 0.70703-1.3789 1.4414-2.0234 2.207 2.6953 1.2695 5.9258 2.3438 9.5469 3.168 0.78906-2.793 1.7461-5.3633 2.8398-7.6484 1.1797-2.4648 2.5234-4.6133 4.0117-6.3828zm-6.8477 52.469c-3.6211 0.82422-6.8516 1.8984-9.5469 3.168 0.64062 0.76562 1.3164 1.5 2.0234 2.207 3.9609 3.9609 8.8789 6.9727 14.371 8.6602-1.4844-1.7695-2.832-3.918-4.0117-6.3828-1.0938-2.2891-2.0508-4.8555-2.8398-7.6484z"/>
</svg>